<svg width="375" height="812" viewBox="0 0 375 812" fill="none" xmlns="http://www.w3.org/2000/svg">
<path fill-rule="evenodd" clip-rule="evenodd" d="M375 0H0V68C0 60.268 6.26801 54 14 54H361C368.732 54 375 60.268 375 68V0ZM375 798C375 805.732 368.732 812 361 812H375V798ZM14 812C6.268 812 0 805.732 0 798V812H14Z" fill="black"/>
<path d="M16 54C16 48.4772 20.4772 44 26 44H349C354.523 44 359 48.4772 359 54H16Z" fill="white"/>
<path d="M16 54C16 48.4772 20.4772 44 26 44H349C354.523 44 359 48.4772 359 54H16Z" fill="black" fill-opacity="0.35"/>
<circle cx="341" cy="98" r="14" fill="black" fill-opacity="0.1"/>
<path fill-rule="evenodd" clip-rule="evenodd" d="M347.364 91.6366C346.973 91.2461 346.34 91.2461 345.949 91.6366L341 96.5864L336.05 91.6367C335.659 91.2462 335.026 91.2462 334.636 91.6367C334.245 92.0272 334.245 92.6604 334.636 93.0509L339.585 98.0006L334.636 102.95C334.245 103.341 334.245 103.974 334.636 104.365C335.026 104.755 335.659 104.755 336.05 104.365L341 99.4148L345.949 104.365C346.34 104.755 346.973 104.755 347.364 104.365C347.754 103.974 347.754 103.341 347.364 102.95L342.414 98.0006L347.364 93.0509C347.754 92.6603 347.754 92.0272 347.364 91.6366Z" fill="black" fill-opacity="0.4"/>
<path opacity="0.35" d="M354.833 17.832H339.167C337.694 17.832 336.5 19.0259 336.5 20.4987V25.4987C336.5 26.9715 337.694 28.1654 339.167 28.1654H354.833C356.306 28.1654 357.5 26.9715 357.5 25.4987V20.4987C357.5 19.0259 356.306 17.832 354.833 17.832Z" stroke="white"/>
<path opacity="0.4" d="M359 21V25C359.805 24.6612 360.328 23.8731 360.328 23C360.328 22.1269 359.805 21.3388 359 21Z" fill="white"/>
<path d="M354.667 19.332H339.333C338.597 19.332 338 19.929 338 20.6654V25.332C338 26.0684 338.597 26.6654 339.333 26.6654H354.667C355.403 26.6654 356 26.0684 356 25.332V20.6654C356 19.929 355.403 19.332 354.667 19.332Z" fill="white"/>
<path d="M323.33 19.6094C325.546 19.6095 327.677 20.4609 329.283 21.9877C329.404 22.1056 329.597 22.1041 329.716 21.9844L330.872 20.8177C330.933 20.757 330.966 20.6747 330.966 20.5891C330.965 20.5036 330.931 20.4217 330.87 20.3617C326.655 16.3221 320.005 16.3221 315.79 20.3617C315.729 20.4217 315.694 20.5035 315.693 20.5891C315.693 20.6746 315.726 20.7569 315.787 20.8177L316.943 21.9844C317.062 22.1043 317.255 22.1057 317.376 21.9877C318.982 20.4608 321.114 19.6094 323.33 19.6094ZM323.33 23.405C324.547 23.405 325.722 23.8575 326.624 24.6747C326.746 24.7907 326.938 24.7882 327.057 24.669L328.212 23.5024C328.273 23.4412 328.307 23.3581 328.306 23.2719C328.305 23.1856 328.269 23.1033 328.207 23.0434C325.459 20.487 321.203 20.487 318.455 23.0434C318.393 23.1033 318.357 23.1857 318.357 23.272C318.356 23.3582 318.39 23.4413 318.451 23.5024L319.605 24.669C319.724 24.7882 319.916 24.7907 320.038 24.6747C320.94 23.858 322.113 23.4055 323.33 23.405ZM325.549 26.1894C325.611 26.1288 325.645 26.0454 325.643 25.9588C325.641 25.8723 325.604 25.7904 325.54 25.7324C324.264 24.6535 322.396 24.6535 321.12 25.7324C321.056 25.7903 321.019 25.8723 321.017 25.9588C321.015 26.0453 321.049 26.1287 321.111 26.1894L323.108 28.205C323.167 28.2643 323.247 28.2976 323.33 28.2976C323.413 28.2976 323.493 28.2643 323.552 28.205L325.549 26.1894Z" fill="white"/>
<path d="M294.667 24.3346H295.667C296.219 24.3346 296.667 24.7824 296.667 25.3346V27.3346C296.667 27.8869 296.219 28.3346 295.667 28.3346H294.667C294.115 28.3346 293.667 27.8869 293.667 27.3346V25.3346C293.667 24.7824 294.115 24.3346 294.667 24.3346ZM299.334 22.3346H300.334C300.886 22.3346 301.334 22.7824 301.334 23.3346V27.3346C301.334 27.8869 300.886 28.3346 300.334 28.3346H299.334C298.781 28.3346 298.334 27.8869 298.334 27.3346V23.3346C298.334 22.7824 298.781 22.3346 299.334 22.3346ZM304 20.0013H305C305.553 20.0013 306 20.449 306 21.0013V27.3346C306 27.8869 305.553 28.3346 305 28.3346H304C303.448 28.3346 303 27.8869 303 27.3346V21.0013C303 20.449 303.448 20.0013 304 20.0013ZM308.667 17.668H309.667C310.219 17.668 310.667 18.1157 310.667 18.668V27.3346C310.667 27.8869 310.219 28.3346 309.667 28.3346H308.667C308.115 28.3346 307.667 27.8869 307.667 27.3346V18.668C307.667 18.1157 308.115 17.668 308.667 17.668Z" fill="white"/>
<path d="M37.835 17.3896C35.6953 17.3896 34.1709 18.8525 34.1709 20.8555V20.8691C34.1709 22.7422 35.4971 24.123 37.3906 24.123C38.7441 24.123 39.6055 23.4326 39.9678 22.6533H40.1045C40.1045 22.7285 40.0977 22.8037 40.0977 22.8789C40.0225 24.7656 39.3594 26.2969 37.7939 26.2969C36.9258 26.2969 36.3174 25.8457 36.0576 25.1553L36.0371 25.0869H34.3008L34.3145 25.1621C34.6289 26.6729 35.9824 27.7461 37.7939 27.7461C40.2754 27.7461 41.7725 25.7773 41.7725 22.4551V22.4414C41.7725 18.8867 39.9404 17.3896 37.835 17.3896ZM37.8281 22.7695C36.707 22.7695 35.8936 21.9492 35.8936 20.8076V20.7939C35.8936 19.6934 36.7617 18.8252 37.8486 18.8252C38.9424 18.8252 39.7969 19.707 39.7969 20.835V20.8486C39.7969 21.9629 38.9424 22.7695 37.8281 22.7695ZM44.876 21.1084C45.5049 21.1084 45.9629 20.6299 45.9629 20.0283C45.9629 19.4199 45.5049 18.9482 44.876 18.9482C44.2539 18.9482 43.7891 19.4199 43.7891 20.0283C43.7891 20.6299 44.2539 21.1084 44.876 21.1084ZM44.876 26.1807C45.5049 26.1807 45.9629 25.709 45.9629 25.1006C45.9629 24.4922 45.5049 24.0205 44.876 24.0205C44.2539 24.0205 43.7891 24.4922 43.7891 25.1006C43.7891 25.709 44.2539 26.1807 44.876 26.1807ZM52.7646 27.5H54.4531V25.6064H55.7793V24.1504H54.4531V17.6357H51.958C50.6182 19.6729 49.2168 21.9424 47.9385 24.1641V25.6064H52.7646V27.5ZM49.5791 24.1914V24.0889C50.5361 22.4141 51.6777 20.5889 52.6895 19.0439H52.792V24.1914H49.5791ZM59.8672 27.5H61.6309V17.6357H59.874L57.2969 19.4473V21.1084L59.751 19.3721H59.8672V27.5Z" fill="white"/>
<path d="M252 799H123C121.619 799 120.5 800.119 120.5 801.5C120.5 802.881 121.619 804 123 804H252C253.381 804 254.5 802.881 254.5 801.5C254.5 800.119 253.381 799 252 799Z" fill="black"/>
<path fill-rule="evenodd" clip-rule="evenodd" d="M375 812H335C357.091 812 375 794.091 375 772V812ZM0.00535886 772.661C0.35859 794.448 18.1295 812 40 812H0V772L0.00535886 772.661Z" fill="black"/>
<path fill-rule="evenodd" clip-rule="evenodd" d="M375 40V0H335C356.87 0 374.641 17.5522 374.995 39.3385L375 40ZM40 0H0V40C0 17.9086 17.9086 0 40 0ZM268.961 31H106.039C93.3365 31 83.0391 20.7025 83.0391 7.96098L83.0457 4.03742C83.0331 3.986 83.0193 3.94019 83.0044 3.9C82.3333 2.08608 80.7796 0.67396 78.8918 0.216238L78 0H297L296.108 0.216238C294.211 0.676168 292.668 2.07301 292.002 3.9C291.97 3.9863 291.954 4.07747 291.954 4.16932L291.961 8C291.961 20.7025 281.663 31 268.961 31Z" fill="black"/>
</svg>
